<svg width="38" height="42" viewBox="0 0 38 42" fill="none" xmlns="http://www.w3.org/2000/svg">
<path fill-rule="evenodd" clip-rule="evenodd" d="M0 9C0 8.44771 0.447715 8 1 8H37C37.5523 8 38 8.44771 38 9C38 9.55229 37.5523 10 37 10H1C0.447715 10 0 9.55229 0 9Z" fill="white"/>
<path fill-rule="evenodd" clip-rule="evenodd" d="M15 2C14.2044 2 13.4413 2.31607 12.8787 2.87868C12.3161 3.44129 12 4.20435 12 5V9C12 9.55229 11.5523 10 11 10C10.4477 10 10 9.55229 10 9V5C10 3.67392 10.5268 2.40215 11.4645 1.46447C12.4021 0.526784 13.6739 0 15 0H23C24.3261 0 25.5979 0.526784 26.5355 1.46447C27.4732 2.40215 28 3.67392 28 5V9C28 9.55229 27.5523 10 27 10C26.4477 10 26 9.55229 26 9V5C26 4.20435 25.6839 3.44129 25.1213 2.87868C24.5587 2.31607 23.7956 2 23 2H15ZM5 8C5.55228 8 6 8.44772 6 9V37C6 37.7957 6.31607 38.5587 6.87868 39.1213C7.44129 39.6839 8.20435 40 9 40H29C29.7956 40 30.5587 39.6839 31.1213 39.1213C31.6839 38.5587 32 37.7957 32 37V9C32 8.44772 32.4477 8 33 8C33.5523 8 34 8.44772 34 9V37C34 38.3261 33.4732 39.5979 32.5355 40.5355C31.5979 41.4732 30.3261 42 29 42H9C7.67392 42 6.40215 41.4732 5.46447 40.5355C4.52678 39.5979 4 38.3261 4 37V9C4 8.44772 4.44772 8 5 8Z" fill="white"/>
<path fill-rule="evenodd" clip-rule="evenodd" d="M15 18C15.5523 18 16 18.4477 16 19V31C16 31.5523 15.5523 32 15 32C14.4477 32 14 31.5523 14 31V19C14 18.4477 14.4477 18 15 18Z" fill="white"/>
<path fill-rule="evenodd" clip-rule="evenodd" d="M23 18C23.5523 18 24 18.4477 24 19V31C24 31.5523 23.5523 32 23 32C22.4477 32 22 31.5523 22 31V19C22 18.4477 22.4477 18 23 18Z" fill="white"/>
</svg>
