<svg width="42" height="42" viewBox="0 0 42 42" fill="none" xmlns="http://www.w3.org/2000/svg">
<path fill-rule="evenodd" clip-rule="evenodd" d="M21 2C10.5066 2 2 10.5066 2 21C2 31.4934 10.5066 40 21 40C31.4934 40 40 31.4934 40 21C40 10.5066 31.4934 2 21 2ZM0 21C0 9.40202 9.40202 0 21 0C32.598 0 42 9.40202 42 21C42 32.598 32.598 42 21 42C9.40202 42 0 32.598 0 21Z" fill="white"/>
<path fill-rule="evenodd" clip-rule="evenodd" d="M27.7071 14.2929C28.0976 14.6834 28.0976 15.3166 27.7071 15.7071L15.7071 27.7071C15.3166 28.0976 14.6834 28.0976 14.2929 27.7071C13.9024 27.3166 13.9024 26.6834 14.2929 26.2929L26.2929 14.2929C26.6834 13.9024 27.3166 13.9024 27.7071 14.2929Z" fill="white"/>
<path fill-rule="evenodd" clip-rule="evenodd" d="M14.2929 14.2929C14.6834 13.9024 15.3166 13.9024 15.7071 14.2929L27.7071 26.2929C28.0976 26.6834 28.0976 27.3166 27.7071 27.7071C27.3166 28.0976 26.6834 28.0976 26.2929 27.7071L14.2929 15.7071C13.9024 15.3166 13.9024 14.6834 14.2929 14.2929Z" fill="white"/>
</svg>
