<svg width="18" height="16" viewBox="0 0 18 16" fill="none" xmlns="http://www.w3.org/2000/svg">
<path d="M8.10333 1.15013C8.47017 0.406958 9.52991 0.406959 9.89675 1.15013L11.6001 4.60092C11.7456 4.89577 12.0268 5.10023 12.3522 5.14778L16.1629 5.70478C16.9828 5.82462 17.3096 6.83246 16.716 7.41062L13.9602 10.0948C13.7243 10.3246 13.6166 10.6557 13.6723 10.9802L14.3225 14.7711C14.4626 15.5881 13.605 16.2111 12.8714 15.8252L9.46549 14.0341C9.17411 13.8809 8.82597 13.8809 8.53459 14.0341L5.12867 15.8252C4.39504 16.2111 3.53749 15.5881 3.67761 14.7711L4.32779 10.9802C4.38345 10.6557 4.27579 10.3246 4.03992 10.0948L1.28405 7.41063C0.69046 6.83247 1.01724 5.82462 1.83716 5.70478L5.64791 5.14778C5.97326 5.10023 6.25445 4.89577 6.39999 4.60092L8.10333 1.15013Z" fill="#F0D288"/>
</svg>
